# xmcd
#
# Track frame offsets: 
#        150
#        6587
#        17690
#        30252
#        41065
#        56862
#        67780
#        81627
#        92327
#        104137
#        119247
#        133620
#        140747
#        153770
#        166477
#        175000
#        186137
#        198200
#        212580
#
# Disc length: 2988 seconds
#
# Revision: 10
# Processed by: cddbd v1.5.2PL0 Copyright (c) Steve Scherf et al.
# Submitted via: ExactAudioCopy v0.99pb1
#
DISCID=0b0baa13
DTITLE=Rancid - ...And Out Come The Wolves
DYEAR=1995
DGENRE=Punk
TTITLE0=Maxwell Murder
TTITLE1=The 11th Hour
TTITLE2=Roots Radicals
TTITLE3=Time Bomb
TTITLE4=Olympia WA.
TTITLE5=Lock, Step and Gone
TTITLE6=Junkie Man
TTITLE7=Listed M.I.A.
TTITLE8=Ruby Soho
TTITLE9=Daly City Train
TTITLE10=Journey To The End Of The East Bay
TTITLE11=She's Automatic
TTITLE12=Old Friend
TTITLE13=Disorder And Disarray
TTITLE14=The Wars End
TTITLE15=You Don't Care Nothin'
TTITLE16=As Wicked
TTITLE17=Avenues and Alleyways
TTITLE18=The Way I Feel
EXTD=YEAR: 1995 ID3G: 121
EXTT0=
EXTT1=
EXTT2=
EXTT3=
EXTT4=
EXTT5=
EXTT6=
EXTT7=
EXTT8=
EXTT9=
EXTT10=
EXTT11=
EXTT12=
EXTT13=
EXTT14=
EXTT15=
EXTT16=
EXTT17=
EXTT18=
PLAYORDER=
